<svg id="Layer_1" data-name="Layer 1" xmlns="http://www.w3.org/2000/svg" xmlns:xlink="http://www.w3.org/1999/xlink" viewBox="0 0 16 16"><defs><style>.cls-1{fill:#ba6e94;}.cls-2{fill:url(#linear-gradient);}.cls-3{fill:url(#linear-gradient-2);}</style><linearGradient id="linear-gradient" x1="10.26" y1="11.95" x2="6.67" y2="5.73" gradientUnits="userSpaceOnUse"><stop offset="0" stop-color="#ffdcc6"/><stop offset="0.5" stop-color="#fe9792"/><stop offset="1" stop-color="#f35f5b"/></linearGradient><linearGradient id="linear-gradient-2" x1="8.35" y1="9.99" x2="4.59" y2="3.48" gradientUnits="userSpaceOnUse"><stop offset="0" stop-color="#797abd"/><stop offset="0.5" stop-color="#b86e93"/><stop offset="1" stop-color="#b86e93"/></linearGradient></defs><path class="cls-1" d="M4.53,13.45a.48.48,0,0,0,.23.06c.09,0,.14,0,.14-.1s0-.09-.15-.12S4.5,13.15,4.5,13s.13-.27.34-.27a.59.59,0,0,1,.23,0L5,13a.4.4,0,0,0-.19-.05c-.09,0-.13,0-.13.09s0,.08.17.13.23.14.23.27-.12.28-.37.28a.54.54,0,0,1-.25-.06Z"/><path class="cls-1" d="M5.2,12.77l.28,0a.41.41,0,0,1,.27.08.25.25,0,0,1,.1.21.3.3,0,0,1-.08.21.42.42,0,0,1-.3.1H5.4v.33H5.2Zm.2.41h.07c.11,0,.18-.06.18-.15s-.06-.13-.16-.13H5.4Z"/><path class="cls-1" d="M6.76,13.2a.43.43,0,0,1-.44.48.42.42,0,0,1-.43-.46.44.44,0,0,1,.44-.47A.41.41,0,0,1,6.76,13.2Zm-.65,0c0,.18.08.31.22.31s.22-.13.22-.31-.08-.3-.22-.3S6.11,13,6.11,13.21Z"/><path class="cls-1" d="M6.85,12.77l.27,0a.46.46,0,0,1,.29.07A.23.23,0,0,1,7.5,13a.24.24,0,0,1-.16.23h0a.25.25,0,0,1,.12.17c0,.1,0,.22.07.26H7.32s0-.1-.06-.22-.06-.14-.15-.14H7.05v.36h-.2Zm.2.39h.08c.1,0,.16-.05.16-.13s0-.12-.15-.12H7.05Z"/><path class="cls-1" d="M7.77,12.93H7.53v-.17h.7v.17H8v.74H7.77Z"/><path class="cls-1" d="M8.28,13.45a.52.52,0,0,0,.23.06c.09,0,.14,0,.14-.1s0-.09-.15-.12-.25-.14-.25-.27.13-.27.34-.27a.59.59,0,0,1,.23,0l0,.17a.4.4,0,0,0-.19-.05c-.09,0-.13,0-.13.09s0,.08.17.13.23.14.23.27-.11.28-.36.28a.55.55,0,0,1-.26-.06Z"/><path class="cls-1" d="M9.18,12.77l.27,0a.58.58,0,0,1,.38.1.41.41,0,0,1,.15.34.47.47,0,0,1-.15.37.66.66,0,0,1-.42.11H9.18Zm.2.74h.07a.28.28,0,0,0,.31-.31.26.26,0,0,0-.28-.29h-.1Z"/><path class="cls-1" d="M10.89,13.2a.43.43,0,0,1-.44.48.42.42,0,0,1-.43-.46.44.44,0,0,1,.44-.47A.41.41,0,0,1,10.89,13.2Zm-.65,0c0,.18.08.31.22.31s.22-.13.22-.31-.08-.3-.22-.3S10.24,13,10.24,13.21Z"/><path class="cls-1" d="M11.12,12.93h-.25v-.17h.7v.17h-.25v.74h-.2Z"/><path class="cls-2" d="M5.15,11.3a.61.61,0,0,1,.54-.63h3.8a2,2,0,0,0,.43-.05,2.27,2.27,0,0,0,1.49-1.29,1.89,1.89,0,0,0,0-1.22,2,2,0,0,0-.56-.83,1.64,1.64,0,0,0-.61-.38,4,4,0,0,0-.41-.08c-1.66,0-2.1,0-2.85-.05A.58.58,0,0,1,7,5.62l2.51,0h.39a3.22,3.22,0,0,1,2.78,2.52,3.2,3.2,0,0,1,0,1.22,3.11,3.11,0,0,1-1,1.73,3,3,0,0,1-1.6.75l-.32,0h-4A.61.61,0,0,1,5.15,11.3Z"/><path class="cls-3" d="M10,8.72a.56.56,0,0,1-.48.52H5.66a2.78,2.78,0,0,1-1.44-.75,3.28,3.28,0,0,1-.89-1.73,3.68,3.68,0,0,1,0-1.22A3.46,3.46,0,0,1,4.39,3.66,2.68,2.68,0,0,1,5.82,3h.35L7.55,3h0a.6.6,0,0,1,.39.59.63.63,0,0,1-.16.43.51.51,0,0,1-.29.17H5.87a2.16,2.16,0,0,0-.38.08A1.59,1.59,0,0,0,5,4.7a2,2,0,0,0-.5.83,2.12,2.12,0,0,0,0,1.22A2.17,2.17,0,0,0,5.78,8a2.43,2.43,0,0,0,.39.05H9.56A.57.57,0,0,1,10,8.72Z"/></svg>